<svg width="16" height="16" viewBox="0 0 16 16" fill="none" xmlns="http://www.w3.org/2000/svg">
<rect x="0.167364" y="0.167364" width="15.6653" height="15.6653" rx="0.455204" fill="#F5F5F5"/>
<rect x="0.167364" y="0.167364" width="15.6653" height="15.6653" rx="0.455204" stroke="#302C34" stroke-width="0.334728"/>
<path fill-rule="evenodd" clip-rule="evenodd" d="M3.47977 4C3.94569 4.00004 4.34007 4.07701 4.66266 4.23117C4.98525 4.38534 5.24515 4.64836 5.44231 5.02012C5.6395 5.392 5.78074 5.90272 5.8659 6.55124C5.9555 7.19971 6 8.01854 6 9.00702C5.99999 10 5.95552 10.8209 5.8659 11.4693C5.78074 12.1133 5.63949 12.6211 5.44231 12.993C5.24513 13.3603 4.9853 13.6212 4.66266 13.7754C4.34007 13.925 3.94569 14 3.47977 14H2V4H3.47977ZM3.45295 12.5307C3.81122 12.5305 4.06442 12.3876 4.21225 12.102C4.36015 11.8163 4.45002 11.4075 4.48139 10.8769C4.51274 10.3465 4.52855 9.71629 4.52855 8.98643C4.52855 8.24721 4.51276 7.61653 4.48139 7.09499C4.45003 6.56926 4.358 6.16805 4.20578 5.89144C4.05795 5.61038 3.80676 5.46947 3.45295 5.46935V12.5307Z" fill="#7E6C90"/>
<path d="M9 4C9.31011 4.00001 9.58792 4.05491 9.83325 4.1658C10.0833 4.27233 10.2945 4.42391 10.4658 4.61922C10.6416 4.81443 10.7735 5.0407 10.8614 5.29798C10.954 5.55097 11 5.82395 11 6.11688V7.62187H9.49976V6.11688C9.49976 5.92172 9.4629 5.75322 9.38892 5.61125C9.31483 5.46922 9.18519 5.39783 9 5.39782C8.81947 5.39782 8.68981 5.47325 8.61108 5.62407C8.537 5.77055 8.50024 5.9349 8.50024 6.11688V12.0031C8.5003 12.1938 8.53912 12.3624 8.61777 12.5087C8.69649 12.6508 8.82404 12.7222 9 12.7222C9.18517 12.7222 9.31483 12.6507 9.38892 12.5087C9.46294 12.3624 9.4997 12.1938 9.49976 12.0031V10.3644H8.90253V9.01969H11V13.8937H10.1113L9.93072 13.3606C9.80116 13.5602 9.6345 13.7179 9.43096 13.8333C9.2319 13.9442 9.00932 14 8.76398 14C8.35195 14 8.01609 13.907 7.75681 13.7206C7.4975 13.5342 7.30562 13.2808 7.1806 12.9613C7.06025 12.6418 7.00003 12.2825 7 11.8831V6.11688C7 5.72191 7.08071 5.3647 7.24271 5.04516C7.40478 4.72557 7.63643 4.47222 7.93741 4.28579C8.23835 4.095 8.5926 4 9 4Z" fill="#7E6C90"/>
<rect x="7" y="2.5" width="1" height="0.5" fill="#302C34"/>
<rect x="9" y="2.5" width="1" height="0.5" fill="#302C34"/>
<rect x="11" y="2.5" width="1" height="0.5" fill="#302C34"/>
<rect x="13" y="2.5" width="1" height="0.5" fill="#7E6C90"/>
<rect x="13" y="1.5" width="1" height="0.5" transform="rotate(90 13 1.5)" fill="#302C34"/>
<rect x="13" y="3.5" width="1" height="0.5" transform="rotate(90 13 3.5)" fill="#302C34"/>
<rect x="13" y="5.5" width="1" height="0.5" transform="rotate(90 13 5.5)" fill="#302C34"/>
<rect x="13" y="7.5" width="1" height="0.5" transform="rotate(90 13 7.5)" fill="#302C34"/>
</svg>
