<svg width="7250" height="2430" viewBox="0 0 7250 2430" fill="none" xmlns="http://www.w3.org/2000/svg">
<path d="M4438.53 418.844V2396.28H5382.87H6630.42" stroke="#F5F5F5" stroke-width="62.5291"/>
<path d="M4408.29 450.057L6997.92 450.057" stroke="#F5F5F5" stroke-width="62.5291" stroke-dasharray="171.16 171.16"/>
<path d="M6600.81 2429.46L6600.81 0" stroke="#F5F5F5" stroke-width="62.5291" stroke-dasharray="171.16 171.16"/>
<path fill-rule="evenodd" clip-rule="evenodd" d="M4307.13 2428.96H4020.03L3965.34 2018.82H3680.98L3626.3 2428.96H3339.2L3642.7 419.289H4003.62L4307.13 2428.96ZM3806.76 1031.76L3722 1707.12H3924.33L3839.57 1031.76L3831.37 925.124H3814.96L3806.76 1031.76Z" fill="#302C34"/>
<path d="M2926.24 1466.5L2950.85 1559.47H2967.26V419.289H3237.95V2428.96H2989.13L2688.36 1381.74L2663.76 1288.78H2647.35V2428.96H2376.66V419.289H2652.82L2926.24 1466.5Z" fill="#302C34"/>
<path fill-rule="evenodd" clip-rule="evenodd" d="M2275.02 2428.96H1987.93L1933.24 2018.82H1648.88L1594.2 2428.96H1307.1L1610.6 419.289H1971.52L2275.02 2428.96ZM1774.66 1031.76L1689.89 1707.12H1892.23L1807.47 1031.76L1799.26 925.124H1782.86L1774.66 1031.76Z" fill="#302C34"/>
<path d="M1230.6 2428.96H935.306V419.289H1230.6V2428.96Z" fill="#302C34"/>
<path fill-rule="evenodd" clip-rule="evenodd" d="M300.768 419.289C395.555 419.289 475.759 434.783 541.381 465.771C607.003 496.759 659.866 549.622 699.968 624.358C740.07 699.094 768.779 801.628 786.096 931.959C804.324 1062.29 813.438 1226.8 813.438 1425.49C813.438 1625.09 804.324 1790.06 786.096 1920.39C768.779 2049.81 740.07 2151.89 699.968 2226.63C659.866 2300.45 607.003 2352.86 541.381 2383.85C475.759 2413.92 395.555 2428.96 300.768 2428.96H0V419.289H300.768ZM295.299 2133.66C368.212 2133.66 419.707 2104.95 449.784 2047.53C479.861 1990.11 498.088 1908.09 504.468 1801.45C510.848 1694.82 514.039 1568.13 514.039 1421.39C514.039 1272.83 510.848 1146.14 504.468 1041.33C498.088 935.606 479.405 854.946 448.417 799.349C418.341 742.842 367.301 714.588 295.299 714.588V2133.66Z" fill="#302C34"/>
<path d="M4715.78 2184.84C4699.23 2184.84 4685.74 2180.88 4675.33 2172.96C4664.92 2165.04 4657.2 2154.29 4652.18 2140.71C4647.35 2127.13 4644.93 2111.86 4644.93 2094.89V1849.91C4644.93 1833.13 4648.18 1817.95 4654.69 1804.37C4661.2 1790.79 4670.5 1780.04 4682.58 1772.12C4694.67 1764.01 4708.9 1759.96 4725.26 1759.96C4737.72 1759.96 4748.87 1762.31 4758.73 1767.03C4768.77 1771.55 4777.23 1777.97 4784.11 1786.26C4791.18 1794.56 4796.48 1804.18 4800.01 1815.12C4803.73 1825.87 4805.59 1837.46 4805.59 1849.91V1913.84H4745.34V1849.91C4745.34 1841.61 4743.85 1834.45 4740.88 1828.41C4737.9 1822.38 4732.7 1819.36 4725.26 1819.36C4718.01 1819.36 4712.8 1822.57 4709.64 1828.98C4706.66 1835.2 4705.18 1842.18 4705.18 1849.91V2099.98C4705.18 2108.09 4706.76 2115.25 4709.92 2121.48C4713.08 2127.51 4718.19 2130.53 4725.26 2130.53C4732.7 2130.53 4737.9 2127.51 4740.88 2121.48C4743.85 2115.25 4745.34 2108.09 4745.34 2099.98V2030.39H4721.35V1973.25H4805.59V2180.32H4769.89L4762.63 2157.68C4757.43 2166.17 4750.73 2172.87 4742.55 2177.77C4734.56 2182.48 4725.63 2184.84 4715.78 2184.84Z" fill="#897B96"/>
<path d="M4916.76 2184.84C4900.02 2184.84 4885.61 2180.88 4873.52 2172.96C4861.62 2165.04 4852.42 2154.29 4845.91 2140.71C4839.59 2127.13 4836.43 2111.86 4836.43 2094.89V1849.91C4836.43 1832.75 4839.59 1817.47 4845.91 1804.08C4852.42 1790.51 4861.62 1779.76 4873.52 1771.84C4885.61 1763.92 4900.02 1759.96 4916.76 1759.96C4933.49 1759.96 4947.81 1763.92 4959.71 1771.84C4971.8 1779.76 4981 1790.51 4987.33 1804.08C4993.83 1817.66 4997.09 1832.94 4997.09 1849.91V2094.89C4997.09 2111.86 4993.83 2127.13 4987.33 2140.71C4981 2154.29 4971.8 2165.04 4959.71 2172.96C4947.81 2180.88 4933.49 2184.84 4916.76 2184.84ZM4916.76 2125.44C4924.2 2125.44 4929.4 2122.32 4932.38 2116.1C4935.35 2109.69 4936.84 2102.62 4936.84 2094.89V1849.91C4936.84 1842.18 4935.26 1835.2 4932.1 1828.98C4928.94 1822.57 4923.82 1819.36 4916.76 1819.36C4909.88 1819.36 4904.76 1822.57 4901.42 1828.98C4898.26 1835.2 4896.68 1842.18 4896.68 1849.91V2094.89C4896.68 2102.62 4898.26 2109.69 4901.42 2116.1C4904.58 2122.32 4909.69 2125.44 4916.76 2125.44Z" fill="#897B96"/>
<path d="M5027.99 2180.32V1764.48H5088.24V2123.74H5168.01V2180.32H5027.99Z" fill="#897B96"/>
<path d="M5258.9 2184.84C5242.16 2184.84 5227.75 2180.88 5215.66 2172.96C5203.76 2165.04 5194.56 2154.29 5188.05 2140.71C5181.73 2127.13 5178.57 2111.86 5178.57 2094.89V1849.91C5178.57 1832.75 5181.73 1817.47 5188.05 1804.08C5194.56 1790.51 5203.76 1779.76 5215.66 1771.84C5227.75 1763.92 5242.16 1759.96 5258.9 1759.96C5275.63 1759.96 5289.95 1763.92 5301.85 1771.84C5313.94 1779.76 5323.14 1790.51 5329.47 1804.08C5335.97 1817.66 5339.23 1832.94 5339.23 1849.91V2094.89C5339.23 2111.86 5335.97 2127.13 5329.47 2140.71C5323.14 2154.29 5313.94 2165.04 5301.85 2172.96C5289.95 2180.88 5275.63 2184.84 5258.9 2184.84ZM5258.9 2125.44C5266.34 2125.44 5271.54 2122.32 5274.52 2116.1C5277.49 2109.69 5278.98 2102.62 5278.98 2094.89V1849.91C5278.98 1842.18 5277.4 1835.2 5274.24 1828.98C5271.08 1822.57 5265.96 1819.36 5258.9 1819.36C5252.02 1819.36 5246.9 1822.57 5243.56 1828.98C5240.4 1835.2 5238.82 1842.18 5238.82 1849.91V2094.89C5238.82 2102.62 5240.4 2109.69 5243.56 2116.1C5246.72 2122.32 5251.83 2125.44 5258.9 2125.44Z" fill="#897B96"/>
<path d="M5370.13 2180.32V1764.48H5431.5C5450.83 1764.48 5467.2 1767.69 5480.59 1774.1C5493.97 1780.51 5504.76 1791.45 5512.94 1806.91C5521.12 1822.38 5526.98 1843.59 5530.51 1870.56C5534.23 1897.53 5536.09 1931.57 5536.09 1972.68C5536.09 2013.98 5534.23 2048.12 5530.51 2075.08C5526.98 2101.86 5521.12 2122.99 5512.94 2138.45C5504.76 2153.72 5493.97 2164.57 5480.59 2170.98C5467.2 2177.2 5450.83 2180.32 5431.5 2180.32H5370.13ZM5430.38 2119.21C5445.26 2119.21 5455.76 2113.27 5461.9 2101.39C5468.03 2089.51 5471.75 2072.54 5473.05 2050.47C5474.36 2028.41 5475.01 2002.2 5475.01 1971.83C5475.01 1941.09 5474.36 1914.88 5473.05 1893.19C5471.75 1871.32 5467.94 1854.63 5461.62 1843.12C5455.48 1831.43 5445.07 1825.58 5430.38 1825.58V2119.21Z" fill="#897B96"/>
<path d="M5566.53 2180.32V1764.48H5622.88L5678.66 1981.17L5683.68 2000.4H5687.03V1764.48H5742.26V2180.32H5691.49L5630.13 1963.63L5625.11 1944.39H5621.76V2180.32H5566.53Z" fill="#897B96"/>
<path d="M5775.47 2180.32V1764.48H5835.71V2180.32H5775.47Z" fill="#897B96"/>
<path d="M5855.5 2180.32V2114.69L5949.78 1825.02H5868.89V1764.48H6015.05V1825.02L5919.1 2119.78H6015.05V2180.32H5855.5Z" fill="#897B96"/>
<path d="M6034.8 2180.32V1764.48H6095.05V1909.88H6097.28L6100.07 1903.09L6146.93 1764.48H6208.85L6153.62 1901.4L6216.1 2180.32H6154.18L6114.01 1990.79H6112.34L6095.05 2033.22V2180.32H6034.8Z" fill="#897B96"/>
<path d="M6280.25 2180.32V2003.23L6218.89 1764.48H6278.02L6307.59 1897.43L6309.54 1915.54H6311.21L6313.17 1897.43L6342.73 1764.48H6401.86L6340.5 2003.23V2180.32H6280.25Z" fill="#897B96"/>
<rect width="175.572" height="175.615" transform="matrix(-1 0 0 1 7250 358.678)" fill="#897B96"/>
</svg>
