<svg width="7310" height="2430" viewBox="0 0 7310 2430" fill="none" xmlns="http://www.w3.org/2000/svg">
<path d="M4517 416V2380H5454.93H6694" stroke="#F5F5F5" stroke-width="62.1043"/>
<path d="M4486.97 447L7059 447" stroke="#F5F5F5" stroke-width="62.1043" stroke-dasharray="170 170"/>
<path d="M6664.59 2412.96L6664.59 0" stroke="#F5F5F5" stroke-width="62.1043" stroke-dasharray="170 170"/>
<path d="M108.627 2412.46V416.445H407.351C501.494 416.445 581.154 431.834 646.33 462.611C711.506 493.389 764.009 545.892 803.839 620.12C843.669 694.349 872.184 796.187 889.383 925.634C907.488 1055.08 916.54 1218.47 916.54 1415.81C916.54 1614.06 907.488 1777.9 889.383 1907.35C872.184 2035.89 843.669 2137.28 803.839 2211.51C764.009 2284.83 711.506 2336.88 646.33 2367.66C581.154 2397.53 501.494 2412.46 407.351 2412.46H108.627ZM401.92 2119.17C474.338 2119.17 525.483 2090.66 555.355 2033.63C585.228 1976.6 603.332 1895.13 609.669 1789.22C616.005 1683.31 619.174 1557.48 619.174 1411.74C619.174 1264.19 616.005 1138.36 609.669 1034.26C603.332 929.255 584.775 849.142 553.997 793.923C524.125 737.8 473.432 709.738 401.92 709.738V2119.17ZM1037.58 2412.46V416.445H1330.87V2412.46H1037.58ZM1406.85 2412.46L1708.29 416.445H2066.75L2368.19 2412.46H2083.05L2028.74 2005.11H1746.31L1691.99 2412.46H1406.85ZM1787.04 1695.53H1988L1903.81 1024.76L1895.67 918.844H1879.37L1871.23 1024.76L1787.04 1695.53ZM2469.14 2412.46V416.445H2743.42L3014.99 1456.55L3039.43 1548.88H3055.73V416.445H3324.58V2412.46H3077.45L2778.73 1372.36L2754.29 1280.03H2737.99V2412.46H2469.14ZM3425.14 2412.46L3726.58 416.445H4085.05L4386.49 2412.46H4101.35L4047.03 2005.11H3764.6L3710.29 2412.46H3425.14ZM3805.34 1695.53H4006.3L3922.11 1024.76L3913.96 918.844H3897.67L3889.52 1024.76L3805.34 1695.53Z" fill="#302C34"/>
<path d="M4792.37 2170C4775.93 2170 4762.54 2166.07 4752.2 2158.2C4741.85 2150.33 4734.19 2139.66 4729.2 2126.17C4724.4 2112.68 4722 2097.51 4722 2080.66V1837.34C4722 1820.67 4725.23 1805.6 4731.7 1792.11C4738.16 1778.62 4747.39 1767.95 4759.4 1760.08C4771.4 1752.03 4785.53 1748 4801.78 1748C4814.16 1748 4825.24 1750.34 4835.03 1755.02C4845 1759.52 4853.4 1765.89 4860.24 1774.13C4867.26 1782.37 4872.52 1791.92 4876.03 1802.79C4879.72 1813.46 4881.57 1824.98 4881.57 1837.34V1900.84H4821.73V1837.34C4821.73 1829.1 4820.25 1821.99 4817.3 1815.99C4814.34 1810 4809.17 1807 4801.78 1807C4794.58 1807 4789.41 1810.19 4786.27 1816.55C4783.32 1822.74 4781.84 1829.67 4781.84 1837.34V2085.71C4781.84 2093.77 4783.41 2100.88 4786.55 2107.07C4789.69 2113.06 4794.77 2116.06 4801.78 2116.06C4809.17 2116.06 4814.34 2113.06 4817.3 2107.07C4820.25 2100.88 4821.73 2093.77 4821.73 2085.71V2016.6H4797.91V1959.84H4881.57V2165.5H4846.11L4838.91 2143.03C4833.74 2151.46 4827.09 2158.11 4818.96 2162.98C4811.02 2167.66 4802.15 2170 4792.37 2170Z" fill="#897B96"/>
<path d="M4991.98 2170C4975.36 2170 4961.05 2166.07 4949.04 2158.2C4937.22 2150.33 4928.08 2139.66 4921.62 2126.17C4915.34 2112.68 4912.2 2097.51 4912.2 2080.66V1837.34C4912.2 1820.3 4915.34 1805.13 4921.62 1791.83C4928.08 1778.34 4937.22 1767.67 4949.04 1759.8C4961.05 1751.93 4975.36 1748 4991.98 1748C5008.6 1748 5022.83 1751.93 5034.65 1759.8C5046.65 1767.67 5055.79 1778.34 5062.07 1791.83C5068.54 1805.32 5071.77 1820.49 5071.77 1837.34V2080.66C5071.77 2097.51 5068.54 2112.68 5062.07 2126.17C5055.79 2139.66 5046.65 2150.33 5034.65 2158.2C5022.83 2166.07 5008.6 2170 4991.98 2170ZM4991.98 2111C4999.37 2111 5004.54 2107.91 5007.5 2101.73C5010.45 2095.36 5011.93 2088.33 5011.93 2080.66V1837.34C5011.93 1829.67 5010.36 1822.74 5007.22 1816.55C5004.08 1810.19 4999 1807 4991.98 1807C4985.15 1807 4980.07 1810.19 4976.75 1816.55C4973.61 1822.74 4972.04 1829.67 4972.04 1837.34V2080.66C4972.04 2088.33 4973.61 2095.36 4976.75 2101.73C4979.89 2107.91 4984.96 2111 4991.98 2111Z" fill="#897B96"/>
<path d="M5102.46 2165.5V1752.5H5162.3V2109.31H5241.53V2165.5H5102.46Z" fill="#897B96"/>
<path d="M5331.8 2170C5315.18 2170 5300.86 2166.07 5288.86 2158.2C5277.04 2150.33 5267.9 2139.66 5261.43 2126.17C5255.15 2112.68 5252.01 2097.51 5252.01 2080.66V1837.34C5252.01 1820.3 5255.15 1805.13 5261.43 1791.83C5267.9 1778.34 5277.04 1767.67 5288.86 1759.8C5300.86 1751.93 5315.18 1748 5331.8 1748C5348.42 1748 5362.64 1751.93 5374.46 1759.8C5386.47 1767.67 5395.61 1778.34 5401.89 1791.83C5408.35 1805.32 5411.58 1820.49 5411.58 1837.34V2080.66C5411.58 2097.51 5408.35 2112.68 5401.89 2126.17C5395.61 2139.66 5386.47 2150.33 5374.46 2158.2C5362.64 2166.07 5348.42 2170 5331.8 2170ZM5331.8 2111C5339.19 2111 5344.36 2107.91 5347.31 2101.73C5350.27 2095.36 5351.74 2088.33 5351.74 2080.66V1837.34C5351.74 1829.67 5350.17 1822.74 5347.03 1816.55C5343.9 1810.19 5338.82 1807 5331.8 1807C5324.96 1807 5319.89 1810.19 5316.56 1816.55C5313.42 1822.74 5311.85 1829.67 5311.85 1837.34V2080.66C5311.85 2088.33 5313.42 2095.36 5316.56 2101.73C5319.7 2107.91 5324.78 2111 5331.8 2111Z" fill="#897B96"/>
<path d="M5442.28 2165.5V1752.5H5503.22C5522.43 1752.5 5538.68 1755.68 5551.98 1762.05C5565.28 1768.42 5575.99 1779.28 5584.12 1794.64C5592.24 1810 5598.06 1831.07 5601.57 1857.85C5605.26 1884.64 5607.11 1918.45 5607.11 1959.28C5607.11 2000.3 5605.26 2034.2 5601.57 2060.99C5598.06 2087.59 5592.24 2108.56 5584.12 2123.92C5575.99 2139.09 5565.28 2149.86 5551.98 2156.23C5538.68 2162.41 5522.43 2165.5 5503.22 2165.5H5442.28ZM5502.12 2104.82C5516.89 2104.82 5527.32 2098.92 5533.42 2087.12C5539.51 2075.32 5543.21 2058.46 5544.5 2036.54C5545.79 2014.63 5546.44 1988.59 5546.44 1958.44C5546.44 1927.91 5545.79 1901.87 5544.5 1880.33C5543.21 1858.6 5539.42 1842.03 5533.14 1830.6C5527.05 1818.99 5516.71 1813.18 5502.12 1813.18V2104.82Z" fill="#897B96"/>
<path d="M5637.34 2165.5V1752.5H5693.3L5748.71 1967.71L5753.7 1986.81H5757.02V1752.5H5811.87V2165.5H5761.45L5700.51 1950.29L5695.52 1931.19H5692.2V2165.5H5637.34Z" fill="#897B96"/>
<path d="M5844.86 2165.5V1752.5H5904.7V2165.5H5844.86Z" fill="#897B96"/>
<path d="M5924.35 2165.5V2100.32L6017.99 1812.62H5937.65V1752.5H6082.81V1812.62L5987.51 2105.38H6082.81V2165.5H5924.35Z" fill="#897B96"/>
<path d="M6102.43 2165.5V1752.5H6162.27V1896.91H6164.48L6167.25 1890.17L6213.8 1752.5H6275.3L6220.44 1888.48L6282.5 2165.5H6221L6181.11 1977.26H6179.44L6162.27 2019.41V2165.5H6102.43Z" fill="#897B96"/>
<path d="M6346.22 2165.5V1989.62L6285.27 1752.5H6344L6373.36 1884.55L6375.3 1902.53H6376.97L6378.9 1884.55L6408.27 1752.5H6467L6406.05 1989.62V2165.5H6346.22Z" fill="#897B96"/>
<rect width="174.379" height="174.422" transform="matrix(-1 0 0 1 7309.38 356.242)" fill="#897B96"/>
</svg>
